<svg width="212" height="664" viewBox="0 0 212 664" fill="none" xmlns="http://www.w3.org/2000/svg">
<g clip-path="url(#clip0_1254_66)">
<rect width="212" height="664" fill="#F5F2F0"/>
<path fill-rule="evenodd" clip-rule="evenodd" d="M46.1753 481.077L-271.555 -136.229L-272.445 -135.771L45.6817 482.303V664H46.6817V482.3L242.083 91.4964L241.189 91.0492L46.1753 481.077Z" fill="#D6B384"/>
</g>
<path d="M179.2 646.8L179.536 646.8C179.728 645.024 181.072 644.976 181.936 644.976L193.264 644.976C194.128 644.976 195.472 645.024 195.664 646.8L196 646.8L196 641.328L195.664 641.328C195.472 643.104 194.128 643.152 193.264 643.152L189.688 643.152L187.312 640.92C190.384 639.192 192.88 637.512 195.184 635.328C196.792 633.816 197.704 632.664 198.4 631.512L197.992 631.2C196.888 632.544 195.064 634.392 190.528 636.816C188.92 637.704 186.616 638.76 185.536 639.264L181.12 635.16C179.872 633.984 179.608 632.952 179.536 632.592L179.2 632.592L179.2 637.968L179.536 637.968L179.536 637.92C179.536 636.672 180.304 636.456 180.76 636.456C181.336 636.456 181.96 636.912 182.32 637.224L188.704 643.152L181.936 643.152C181.072 643.152 179.728 643.104 179.536 641.328L179.2 641.328L179.2 646.8ZM196.24 626.977C196.24 625.705 195.64 624.289 194.272 623.257C193.192 622.465 191.824 622.081 190.456 622.081C189.088 622.081 187.72 622.465 186.64 623.257C185.272 624.289 184.672 625.705 184.672 626.977C184.672 628.249 185.272 629.665 186.64 630.697C187.72 631.489 189.088 631.873 190.456 631.873C191.824 631.873 193.192 631.489 194.272 630.697C195.64 629.665 196.24 628.249 196.24 626.977ZM195.688 626.977C195.688 628.009 195.016 629.137 193.576 629.689C192.712 630.025 191.2 630.145 190.456 630.145C189.688 630.145 188.248 630.025 187.336 629.689C185.896 629.137 185.224 628.009 185.224 626.977C185.224 625.945 185.896 624.817 187.336 624.265C188.224 623.953 189.688 623.809 190.456 623.809C191.2 623.809 192.712 623.929 193.576 624.265C195.016 624.817 195.688 625.945 195.688 626.977ZM184.432 617.513L184.432 618.041C185.176 618.593 185.584 619.217 185.752 620.201L186.064 620.201L186.064 620.057C186.064 619.001 186.88 619.001 187.168 619.001L199.912 619.001C200.296 619.001 201.184 619.025 201.184 620.297L201.184 620.345L201.424 620.345L201.424 616.169L201.184 616.193L201.184 616.241C201.184 617.489 200.296 617.513 199.912 617.513L195.088 617.513L195.088 617.393C195.4 617.129 196.24 616.385 196.24 614.945C196.24 612.785 194.32 610.025 190 610.025C186.832 610.025 184.672 611.849 184.672 614.441C184.672 615.281 184.912 616.385 186.064 617.345L186.064 617.513L184.432 617.513ZM187.768 617.513C186.688 617.513 185.392 616.337 185.392 614.849C185.392 613.433 186.328 611.753 190.672 611.753C194.8 611.753 195.688 613.553 195.688 614.777C195.688 616.289 194.416 617.513 193.48 617.513L187.768 617.513ZM184.912 608.017L185.152 608.017L185.152 607.969C185.152 606.697 186.04 606.673 186.424 606.673L194.488 606.673C194.872 606.673 195.76 606.697 195.76 607.969L195.76 608.017L196 608.017L196 603.841L195.76 603.841L195.76 603.889C195.76 605.161 194.872 605.185 194.488 605.185L186.736 605.185C186.496 605.185 185.464 605.161 185.464 603.889L185.464 601.249C185.464 599.977 186.496 599.953 186.736 599.953L194.488 599.953C194.872 599.953 195.76 599.977 195.76 601.249L195.76 601.297L196 601.297L196 597.121L195.76 597.121L195.76 597.169C195.76 598.441 194.872 598.465 194.488 598.465L186.424 598.465C186.04 598.465 185.152 598.441 185.152 597.169L185.152 597.121L184.912 597.121L184.912 608.017ZM196.24 590.204C196.24 588.932 195.64 587.516 194.272 586.484C193.192 585.692 191.824 585.308 190.456 585.308C189.088 585.308 187.72 585.692 186.64 586.484C185.272 587.516 184.672 588.932 184.672 590.204C184.672 591.476 185.272 592.892 186.64 593.924C187.72 594.716 189.088 595.1 190.456 595.1C191.824 595.1 193.192 594.716 194.272 593.924C195.64 592.892 196.24 591.476 196.24 590.204ZM195.688 590.204C195.688 591.236 195.016 592.364 193.576 592.916C192.712 593.252 191.2 593.372 190.456 593.372C189.688 593.372 188.248 593.252 187.336 592.916C185.896 592.364 185.224 591.236 185.224 590.204C185.224 589.172 185.896 588.044 187.336 587.492C188.224 587.18 189.688 587.036 190.456 587.036C191.2 587.036 192.712 587.156 193.576 587.492C195.016 588.044 195.688 589.172 195.688 590.204ZM184.432 580.74L184.432 581.268C185.176 581.82 185.584 582.444 185.752 583.428L186.064 583.428L186.064 583.284C186.064 582.228 186.88 582.228 187.168 582.228L199.912 582.228C200.296 582.228 201.184 582.252 201.184 583.524L201.184 583.572L201.424 583.572L201.424 579.396L201.184 579.42L201.184 579.468C201.184 580.716 200.296 580.74 199.912 580.74L195.088 580.74L195.088 580.62C195.4 580.356 196.24 579.612 196.24 578.172C196.24 576.012 194.32 573.252 190 573.252C186.832 573.252 184.672 575.076 184.672 577.668C184.672 578.508 184.912 579.612 186.064 580.572L186.064 580.74L184.432 580.74ZM187.768 580.74C186.688 580.74 185.392 579.564 185.392 578.076C185.392 576.66 186.328 574.98 190.672 574.98C194.8 574.98 195.688 576.78 195.688 578.004C195.688 579.516 194.416 580.74 193.48 580.74L187.768 580.74ZM196 561.643L195.76 561.643L195.76 561.691C195.76 562.963 194.872 562.987 194.488 562.987L187.6 562.987C186.952 562.987 186.208 563.011 185.536 563.707C184.792 564.451 184.672 565.531 184.672 566.299C184.672 566.947 184.696 567.907 185.344 569.035C185.992 570.163 186.712 570.499 187.36 570.499C187.912 570.499 188.296 570.187 188.296 569.611C188.296 569.011 187.744 568.603 187.216 568.603C186.808 568.603 186.28 568.603 185.824 568.099C185.44 567.691 185.224 566.947 185.224 566.275C185.224 565.507 185.656 565.027 186.04 564.763C186.52 564.475 187.096 564.475 187.696 564.475L188.824 564.475L189.352 565.867C190.312 568.387 190.768 569.179 191.32 569.923C191.8 570.595 192.64 571.243 193.744 571.243C194.632 571.243 196.24 570.691 196.24 568.459C196.24 567.187 195.76 566.011 194.728 564.475L196 564.475L196 561.643ZM194.176 564.475C194.728 565.291 195.424 566.779 195.424 567.811C195.424 568.747 194.824 569.515 193.768 569.515C193.072 569.515 192.064 569.155 191.2 568.027C190.552 567.163 189.688 565.435 189.376 564.475L194.176 564.475ZM196 553.728L195.76 553.728L195.76 553.776C195.76 555.048 194.872 555.072 194.488 555.072L186.976 555.072C186.52 555.072 185.632 555.072 185.632 554.112C185.632 553.08 186.448 551.88 187.888 551.376L187.888 550.992L184.912 551.688L184.912 559.944L187.888 560.64L187.888 560.256C186.448 559.752 185.632 558.552 185.632 557.52C185.632 556.56 186.52 556.56 186.976 556.56L194.488 556.56C194.872 556.56 195.76 556.584 195.76 557.856L195.76 557.904L196 557.904L196 553.728ZM184.912 549.705L185.152 549.705L185.152 549.657C185.152 548.385 186.04 548.361 186.424 548.361L194.488 548.361C194.872 548.361 195.76 548.385 195.76 549.657L195.76 549.705L196 549.705L196 545.529L195.76 545.529L195.76 545.577C195.76 546.849 194.872 546.873 194.488 546.873L193.456 546.873L188.44 541.977L194.488 541.977C194.872 541.977 195.76 542.001 195.76 543.273L195.76 543.321L196 543.321L196 539.145L195.76 539.145L195.76 539.193C195.76 540.465 194.872 540.489 194.488 540.489L186.424 540.489C186.04 540.489 185.152 540.465 185.152 539.193L185.152 539.145L184.912 539.145L184.912 543.321L185.152 543.321L185.152 543.273C185.152 542.001 186.04 541.977 186.424 541.977L187.552 541.977L192.592 546.873L186.424 546.873C186.04 546.873 185.152 546.849 185.152 545.577L185.152 545.529L184.912 545.529L184.912 549.705ZM184.912 537.283L185.152 537.283L185.152 537.235C185.152 535.963 186.04 535.939 186.424 535.939L194.488 535.939C194.872 535.939 195.76 535.963 195.76 537.163L195.76 537.211L196 537.211L196 531.547C196 530.611 195.904 529.699 195.352 528.859C194.944 528.211 194.224 527.563 192.976 527.563C191.104 527.563 190.312 529.171 190.192 530.731L190.048 530.731C189.88 529.291 188.824 528.355 187.504 528.355C187.024 528.355 186.28 528.475 185.632 529.315C184.936 530.203 184.912 531.235 184.912 532.003L184.912 537.283ZM190.504 534.451L190.504 532.195C190.504 531.547 190.504 530.875 191.056 530.179C191.728 529.339 192.52 529.291 193.024 529.291C193.672 529.291 195.448 529.411 195.448 532.027L195.448 533.539C195.448 534.427 194.632 534.451 194.344 534.451L190.504 534.451ZM189.952 534.451L186.592 534.451C185.632 534.451 185.464 533.875 185.464 533.515L185.464 532.195C185.464 530.851 186.256 529.987 187.696 529.987C188.272 529.987 188.776 530.059 189.256 530.563C189.904 531.211 189.952 532.003 189.952 532.603L189.952 534.451ZM186.424 516.277C186.04 516.277 185.152 516.253 185.152 514.981L185.152 514.933L184.912 514.933L184.912 519.109L185.152 519.109L185.152 519.061C185.152 517.789 186.04 517.765 186.424 517.765L190.024 517.765L190.024 522.709L186.424 522.709C186.04 522.709 185.152 522.685 185.152 521.413L185.152 521.365L184.912 521.365L184.912 525.541L185.152 525.541L185.152 525.493C185.152 524.221 186.04 524.197 186.424 524.197L194.488 524.197C194.872 524.197 195.76 524.221 195.76 525.493L195.76 525.541L196 525.541L196 521.365L195.76 521.365L195.76 521.413C195.76 522.685 194.872 522.709 194.488 522.709L190.576 522.709L190.576 517.765L194.488 517.765C194.872 517.765 195.76 517.789 195.76 519.061L195.76 519.109L196 519.109L196 514.933L195.76 514.933L195.76 514.981C195.76 516.253 194.872 516.277 194.488 516.277L186.424 516.277ZM184.912 513.072L185.152 513.072L185.152 513.024C185.152 511.752 186.04 511.728 186.424 511.728L194.488 511.728C194.872 511.728 195.76 511.752 195.76 513.024L195.76 513.072L196 513.072L196 507C196 505.488 195.472 504.624 194.896 504.144C194.536 503.832 193.984 503.496 193.144 503.496C192.16 503.496 191.344 503.856 190.72 504.552C189.736 505.68 189.544 507.072 189.544 508.224C189.544 508.896 189.616 509.568 189.76 510.24L186.424 510.24C186.04 510.24 185.152 510.216 185.152 508.944L185.152 508.896L184.912 508.896L184.912 513.072ZM190.312 510.24C190.216 509.688 190.096 508.92 190.096 508.176C190.096 507.744 190.144 506.832 190.768 506.064C191.416 505.32 192.16 505.224 192.76 505.224C194.344 505.224 194.944 506.112 195.208 506.712C195.424 507.264 195.448 507.816 195.448 508.392L195.448 509.136C195.448 510.192 194.8 510.24 194.296 510.24L190.312 510.24ZM184.912 503.112L185.152 503.112L185.152 503.064C185.152 501.792 186.04 501.768 186.424 501.768L194.488 501.768C194.872 501.768 195.76 501.792 195.76 503.064L195.76 503.112L196 503.112L196 498.936L195.76 498.936L195.76 498.984C195.76 500.256 194.872 500.28 194.488 500.28L186.424 500.28C186.04 500.28 185.152 500.256 185.152 498.984L185.152 498.936L184.912 498.936L184.912 503.112ZM189.904 488.016C186.568 488.208 184.672 490.152 184.672 492.312C184.672 494.712 187.024 496.92 190.384 496.92C193.648 496.92 196.24 494.712 196.24 491.568C196.24 489.936 195.448 488.928 194.104 487.704L193.816 488.04C194.848 489.072 195.16 490.008 195.16 490.896C195.16 493.296 193.288 495.192 190.528 495.192L190.216 495.192C190.12 495.192 190.024 495.192 189.904 495.168L189.904 488.016ZM189.352 495.168C186.736 495.288 185.224 493.824 185.224 492.504C185.224 490.92 187.072 489.648 189.352 489.576L189.352 495.168Z" fill="#B39166"/>
<defs>
<clipPath id="clip0_1254_66">
<rect width="212" height="664" fill="white"/>
</clipPath>
</defs>
</svg>
