<svg width="212" height="664" viewBox="0 0 212 664" fill="none" xmlns="http://www.w3.org/2000/svg">
<g clip-path="url(#clip0_1254_60)">
<rect width="212" height="664" fill="#F5F2F0"/>
<path fill-rule="evenodd" clip-rule="evenodd" d="M51.0001 -1.11804L-349.447 799.776L-348.553 800.224L51.0001 1.11801L164.077 227.273L-31.2653 617.958L-30.3709 618.405L164.636 228.391L450.553 800.224L451.447 799.776L51.0001 -1.11804Z" fill="#D6B384"/>
</g>
<path d="M179.2 643.728L179.536 643.728C179.608 643.056 179.872 641.736 181.888 641.736C182.896 641.736 185.32 641.928 186.544 642.048C188.68 642.24 193.024 642.912 194.584 643.752C195.04 644.016 195.616 644.424 195.616 645.264C195.616 645.936 195.112 646.272 194.752 646.272C194.488 646.272 194.248 646.056 193.984 645.864L193.912 645.816C193.552 645.528 193.12 645.264 192.568 645.264C192.304 645.264 191.416 645.36 191.416 646.368C191.416 647.424 192.568 647.88 193.528 647.88C194.872 647.88 196.336 647.112 196.336 645.384C196.336 644.304 196.096 643.584 195.064 642.936C194.248 642.432 192.496 641.808 186.736 641.136C184.312 640.848 183.592 640.872 181.984 640.704C180.952 640.608 179.92 640.392 179.92 638.472L179.92 636.744C179.92 635.76 180.184 635.064 181.984 635.064L193.264 635.064C194.128 635.064 195.472 635.112 195.664 636.888L196 636.888L196 631.416L195.664 631.416C195.472 633.192 194.128 633.24 193.264 633.24L181.936 633.24C181.072 633.24 179.728 633.192 179.536 631.416L179.2 631.416L179.2 643.728ZM184.912 629.275L185.152 629.275L185.152 629.227C185.152 627.955 186.04 627.931 186.424 627.931L194.488 627.931C194.872 627.931 195.76 627.955 195.76 629.227L195.76 629.275L196 629.275L196 625.099L195.76 625.099L195.76 625.147C195.76 626.419 194.872 626.443 194.488 626.443L193.456 626.443L188.44 621.547L194.488 621.547C194.872 621.547 195.76 621.571 195.76 622.843L195.76 622.891L196 622.891L196 618.715L195.76 618.715L195.76 618.763C195.76 620.035 194.872 620.059 194.488 620.059L186.424 620.059C186.04 620.059 185.152 620.035 185.152 618.763L185.152 618.715L184.912 618.715L184.912 622.891L185.152 622.891L185.152 622.843C185.152 621.571 186.04 621.547 186.424 621.547L187.552 621.547L192.592 626.443L186.424 626.443C186.04 626.443 185.152 626.419 185.152 625.147L185.152 625.099L184.912 625.099L184.912 629.275ZM184.912 607.541L184.912 611.717L185.152 611.717L185.152 611.669C185.152 610.397 186.04 610.373 186.424 610.373L190.48 610.373C190.792 611.501 190.888 612.269 190.888 613.205C190.888 614.837 190.024 614.837 189.52 614.837L186.424 614.837C186.04 614.837 185.152 614.813 185.152 613.541L185.152 613.493L184.912 613.493L184.912 617.669L185.152 617.669L185.152 617.621C185.152 616.349 186.04 616.325 186.424 616.325L189.616 616.325C190.6 616.325 191.56 616.061 191.56 613.733C191.56 612.605 191.392 611.429 191.032 610.373L194.488 610.373C194.872 610.373 195.76 610.397 195.76 611.669L195.76 611.717L196 611.717L196 607.541L195.76 607.541L195.76 607.589C195.76 608.861 194.872 608.885 194.488 608.885L186.424 608.885C186.04 608.885 185.152 608.861 185.152 607.589L185.152 607.541L184.912 607.541ZM186.424 596.409C186.04 596.409 185.152 596.385 185.152 595.113L185.152 595.065L184.912 595.065L184.912 599.241L185.152 599.241L185.152 599.193C185.152 597.921 186.04 597.897 186.424 597.897L190.024 597.897L190.024 602.841L186.424 602.841C186.04 602.841 185.152 602.817 185.152 601.545L185.152 601.497L184.912 601.497L184.912 605.673L185.152 605.673L185.152 605.625C185.152 604.353 186.04 604.329 186.424 604.329L194.488 604.329C194.872 604.329 195.76 604.353 195.76 605.625L195.76 605.673L196 605.673L196 601.497L195.76 601.497L195.76 601.545C195.76 602.817 194.872 602.841 194.488 602.841L190.576 602.841L190.576 597.897L194.488 597.897C194.872 597.897 195.76 597.921 195.76 599.193L195.76 599.241L196 599.241L196 595.065L195.76 595.065L195.76 595.113C195.76 596.385 194.872 596.409 194.488 596.409L186.424 596.409ZM184.912 593.205L185.152 593.205L185.152 593.157C185.152 591.885 186.04 591.861 186.424 591.861L194.488 591.861C194.872 591.861 195.76 591.885 195.76 593.157L195.76 593.205L196 593.205L196 587.133C196 585.621 195.472 584.757 194.896 584.277C194.536 583.965 193.984 583.629 193.144 583.629C192.16 583.629 191.344 583.989 190.72 584.685C189.736 585.813 189.544 587.205 189.544 588.357C189.544 589.029 189.616 589.701 189.76 590.373L186.424 590.373C186.04 590.373 185.152 590.349 185.152 589.077L185.152 589.029L184.912 589.029L184.912 593.205ZM190.312 590.373C190.216 589.821 190.096 589.053 190.096 588.309C190.096 587.877 190.144 586.965 190.768 586.197C191.416 585.453 192.16 585.357 192.76 585.357C194.344 585.357 194.944 586.245 195.208 586.845C195.424 587.397 195.448 587.949 195.448 588.525L195.448 589.269C195.448 590.325 194.8 590.373 194.296 590.373L190.312 590.373ZM184.912 583.245L185.152 583.245L185.152 583.197C185.152 581.925 186.04 581.901 186.424 581.901L194.488 581.901C194.872 581.901 195.76 581.925 195.76 583.197L195.76 583.245L196 583.245L196 579.069L195.76 579.069L195.76 579.117C195.76 580.389 194.872 580.413 194.488 580.413L186.424 580.413C186.04 580.413 185.152 580.389 185.152 579.117L185.152 579.069L184.912 579.069L184.912 583.245ZM189.904 568.149C186.568 568.341 184.672 570.285 184.672 572.445C184.672 574.845 187.024 577.053 190.384 577.053C193.648 577.053 196.24 574.845 196.24 571.701C196.24 570.069 195.448 569.061 194.104 567.837L193.816 568.173C194.848 569.205 195.16 570.141 195.16 571.029C195.16 573.429 193.288 575.325 190.528 575.325L190.216 575.325C190.12 575.325 190.024 575.325 189.904 575.301L189.904 568.149ZM189.352 575.301C186.736 575.421 185.224 573.957 185.224 572.637C185.224 571.053 187.072 569.781 189.352 569.709L189.352 575.301Z" fill="#B39166"/>
<defs>
<clipPath id="clip0_1254_60">
<rect width="212" height="664" fill="white"/>
</clipPath>
</defs>
</svg>
