<svg width="154" height="64" viewBox="0 0 154 64" fill="none" xmlns="http://www.w3.org/2000/svg">
<path fill-rule="evenodd" clip-rule="evenodd" d="M0 44H44.0062V0H0V44ZM33.2145 22.1037L43.1629 2.20901V41.9984L33.2145 22.1037ZM32.7425 23.0463L42.7995 43.1568H27.0567V34.417L32.7425 23.0463ZM32.2711 22.1037L26.6347 33.3756L16.367 12.8419L22.0034 1.57128L32.2711 22.1037ZM15.895 13.7851L26.2121 34.417V43.1568H9.79759V25.9782L15.895 13.7851ZM0.843934 0.843169H8.95364V25.78L0.843934 41.9984V0.843169ZM1.20674 43.1568L8.95364 27.6652V43.1568H1.20674ZM21.4241 0.843169L9.79759 24.0923V0.843169H21.4241ZM32.7425 21.1604L22.5827 0.843169H42.9022L32.7425 21.1604Z" fill="#2E1C17"/>
<path fill-rule="evenodd" clip-rule="evenodd" d="M148.969 33.3463L150.354 44H154L147.462 0H142.747L136.209 44H139.855L141.256 33.3463H148.969ZM145.199 4.33675L148.561 30.2116H141.669L145.073 4.33675H145.199Z" fill="#2E1C17"/>
<path d="M118.542 29.3541V44H114.959V29.3541L107.918 0H111.501L116.719 23.4455H116.845L122.126 0H125.709L118.542 29.3541Z" fill="#2E1C17"/>
<path d="M90.0456 0H93.6294V44H90.0456V0Z" fill="#2E1C17"/>
<path d="M76.6837 40.9823H66.6247V0H63.0422V44H76.6837V40.9823Z" fill="#2E1C17"/>
<path d="M154 63.9415H150.546V58.0591H154V58.5971H151.121V60.6473H153.507V61.186H151.121V63.4036H154V63.9415Z" fill="#2E1C17"/>
<path d="M145.033 61.5127H143.306V60.9761H145.568V61.1694C145.568 61.6509 145.514 62.0693 145.407 62.4246C145.301 62.7813 145.15 63.0755 144.955 63.3073C144.761 63.5397 144.523 63.7131 144.243 63.828C143.964 63.9429 143.652 64 143.306 64C142.961 64 142.645 63.9396 142.36 63.8154C142.074 63.6918 141.828 63.5118 141.619 63.2734C141.411 63.0356 141.249 62.7414 141.134 62.3921C141.018 62.0414 140.961 61.6396 140.961 61.186V60.7317C140.961 60.3006 141.018 59.9148 141.134 59.576C141.249 59.2367 141.411 58.9511 141.619 58.7193C141.828 58.4868 142.076 58.3088 142.364 58.1853C142.652 58.0624 142.966 58 143.306 58C143.624 58 143.91 58.0472 144.165 58.1388C144.421 58.2311 144.642 58.3567 144.828 58.5127C145.014 58.6695 145.165 58.8548 145.28 59.0686C145.396 59.2805 145.475 59.5043 145.519 59.7401H144.91C144.866 59.5721 144.802 59.4153 144.717 59.2699C144.632 59.1238 144.522 58.9969 144.388 58.8867C144.253 58.7777 144.097 58.6921 143.919 58.631C143.741 58.5692 143.536 58.5386 143.306 58.5386C143.054 58.5386 142.821 58.5865 142.607 58.6814C142.393 58.7764 142.208 58.9172 142.051 59.1012C141.895 59.2865 141.773 59.5163 141.685 59.7906C141.597 60.0649 141.554 60.379 141.554 60.7317V61.186C141.554 61.5605 141.599 61.89 141.69 62.1729C141.78 62.4552 141.903 62.6923 142.06 62.8829C142.215 63.0728 142.401 63.2176 142.615 63.3159C142.829 63.4142 143.059 63.462 143.306 63.462C143.569 63.462 143.805 63.4262 144.013 63.3531C144.222 63.2807 144.399 63.1658 144.544 63.0084C144.689 62.8523 144.804 62.6511 144.886 62.404C144.968 62.1576 145.017 61.8608 145.033 61.5127Z" fill="#2E1C17"/>
<path fill-rule="evenodd" clip-rule="evenodd" d="M136.396 63.9415L135.08 61.4211C135.463 61.3029 135.751 61.1043 135.943 60.8247C136.136 60.5444 136.231 60.2024 136.231 59.7985C136.231 59.2666 136.065 58.8435 135.733 58.53C135.402 58.2159 134.896 58.0591 134.216 58.0591H132.365V63.9415H132.941V61.5386H134.364C134.413 61.5386 134.459 61.536 134.504 61.5307L135.738 63.9415H136.396ZM135.639 59.7985C135.639 60.1857 135.525 60.482 135.298 60.6898C135.07 60.8971 134.696 61.0007 134.175 61.0007H132.941V58.5971H134.175C134.69 58.5971 135.063 58.704 135.294 58.9172C135.524 59.1291 135.639 59.4233 135.639 59.7985Z" fill="#2E1C17"/>
<path d="M127.51 63.9415H124.056V58.0591H127.51V58.5971H124.631V60.6473H127.017V61.186H124.631V63.4036H127.51V63.9415Z" fill="#2E1C17"/>
<path d="M118.791 63.9415H118.215V58.0591H118.791V63.9415Z" fill="#2E1C17"/>
<path d="M109.803 59.1012C109.647 59.2865 109.525 59.5149 109.437 59.7859C109.349 60.0576 109.305 60.373 109.305 60.7317V61.186C109.305 61.5605 109.351 61.8913 109.442 62.1776C109.532 62.4625 109.655 62.7016 109.812 62.8915C109.968 63.0828 110.153 63.2243 110.366 63.3206C110.581 63.4149 110.811 63.462 111.058 63.462C111.502 63.462 111.855 63.3425 112.115 63.1014C112.376 62.861 112.546 62.5528 112.629 62.1776H113.238C113.193 62.4399 113.115 62.6823 113.003 62.9041C112.891 63.126 112.741 63.3172 112.555 63.48C112.369 63.6413 112.15 63.7695 111.901 63.8619C111.651 63.9548 111.37 64 111.058 64C110.712 64 110.397 63.9396 110.111 63.8154C109.827 63.6918 109.58 63.5118 109.372 63.2734C109.162 63.0356 109.001 62.7414 108.886 62.3921C108.771 62.0414 108.714 61.6396 108.714 61.186V60.7317C108.714 60.3006 108.771 59.9148 108.886 59.576C109.001 59.2367 109.162 58.9511 109.372 58.7193C109.58 58.4868 109.828 58.3088 110.116 58.1853C110.403 58.0624 110.718 58 111.058 58C111.37 58 111.651 58.0472 111.901 58.1388C112.15 58.2311 112.369 58.3567 112.555 58.5127C112.741 58.6695 112.891 58.8534 113.003 59.0633C113.115 59.2732 113.193 59.4997 113.238 59.7401H112.629C112.585 59.5721 112.52 59.4153 112.435 59.2699C112.351 59.1238 112.243 58.9969 112.111 58.8867C111.979 58.7777 111.826 58.6921 111.65 58.631C111.475 58.5692 111.277 58.5386 111.058 58.5386C110.806 58.5386 110.572 58.5865 110.359 58.6814C110.145 58.7764 109.96 58.9172 109.803 59.1012Z" fill="#2E1C17"/>
<path d="M103.144 63.1857H103.161V58.0591H103.736V63.9415H102.93L99.9686 58.7319H99.9524V63.9415H99.3763V58.0591H100.232L103.144 63.1857Z" fill="#2E1C17"/>
<path fill-rule="evenodd" clip-rule="evenodd" d="M94.3992 60.7317C94.3992 60.2947 94.3413 59.9068 94.2269 59.5681C94.1112 59.2287 93.948 58.9431 93.7373 58.7106C93.526 58.4789 93.2737 58.3015 92.9805 58.1806C92.686 58.0611 92.3641 58 92.013 58C91.6626 58 91.3401 58.0624 91.0468 58.1853C90.7536 58.3088 90.5027 58.4868 90.2946 58.7193C90.0859 58.9511 89.922 59.2367 89.805 59.576C89.686 59.9148 89.6275 60.3006 89.6275 60.7317V61.186C89.6275 61.6396 89.6854 62.0414 89.8005 62.3921C89.9162 62.7414 90.0794 63.0356 90.29 63.2734C90.5014 63.5118 90.7523 63.6918 91.0429 63.8154C91.3329 63.9396 91.6567 64 92.013 64C92.3641 64 92.686 63.9396 92.9805 63.8154C93.2737 63.6918 93.5247 63.5118 93.7334 63.2734C93.9415 63.0356 94.1046 62.7414 94.2223 62.3921C94.34 62.0414 94.3992 61.6396 94.3992 61.186V60.7317ZM93.671 59.7952C93.762 60.0662 93.8069 60.379 93.8069 60.7317V61.186C93.8069 61.5665 93.7633 61.8986 93.6755 62.1809C93.5871 62.4645 93.4642 62.7016 93.3056 62.8915C93.1456 63.0828 92.9564 63.2243 92.738 63.3206C92.5182 63.4149 92.277 63.462 92.013 63.462C91.7556 63.462 91.5176 63.4142 91.2978 63.3159C91.0787 63.2176 90.8895 63.0728 90.7302 62.8829C90.5716 62.6923 90.4461 62.4552 90.3557 62.1729C90.2653 61.89 90.2198 61.5605 90.2198 61.186V60.7317C90.2198 60.373 90.264 60.0576 90.3518 59.7859C90.4389 59.5149 90.5631 59.2865 90.7224 59.1012C90.8811 58.9172 91.0696 58.7764 91.29 58.6814C91.5091 58.5865 91.7504 58.5386 92.013 58.5386C92.2711 58.5386 92.5098 58.5865 92.7295 58.6814C92.9486 58.7764 93.1378 58.9179 93.2971 59.1058C93.4558 59.2931 93.58 59.5229 93.671 59.7952Z" fill="#2E1C17"/>
<path d="M81.5041 59.1012C81.3481 59.2865 81.2259 59.5149 81.1381 59.7859C81.0503 60.0576 81.0068 60.373 81.0068 60.7317V61.186C81.0068 61.5605 81.0523 61.8913 81.1426 62.1776C81.2324 62.4625 81.3559 62.7016 81.5126 62.8915C81.6686 63.0828 81.8539 63.2243 82.0672 63.3206C82.2818 63.4149 82.5126 63.462 82.759 63.462C83.2031 63.462 83.5555 63.3425 83.8162 63.1014C84.0762 62.861 84.2479 62.5528 84.3305 62.1776H84.939C84.8948 62.4399 84.8168 62.6823 84.7043 62.9041C84.5918 63.126 84.443 63.3172 84.2564 63.48C84.0698 63.6413 83.8519 63.7695 83.6023 63.8619C83.3526 63.9548 83.0711 64 82.759 64C82.4131 64 82.0977 63.9396 81.813 63.8154C81.5275 63.6918 81.2805 63.5118 81.0724 63.2734C80.8637 63.0356 80.7025 62.7414 80.5867 62.3921C80.4717 62.0414 80.4138 61.6396 80.4138 61.186V60.7317C80.4138 60.3006 80.4717 59.9148 80.5867 59.576C80.7025 59.2367 80.8637 58.9511 81.0724 58.7193C81.2805 58.4868 81.5288 58.3088 81.8169 58.1853C82.1049 58.0624 82.4183 58 82.759 58C83.0711 58 83.3526 58.0472 83.6023 58.1388C83.8519 58.2311 84.0698 58.3567 84.2564 58.5127C84.443 58.6695 84.5918 58.8534 84.7043 59.0633C84.8168 59.2732 84.8948 59.4997 84.939 59.7401H84.3305C84.2863 59.5721 84.2219 59.4153 84.1367 59.2699C84.0515 59.1238 83.9436 58.9969 83.8123 58.8867C83.6803 58.7777 83.5269 58.6921 83.3513 58.631C83.1758 58.5692 82.9781 58.5386 82.759 58.5386C82.5067 58.5386 82.2739 58.5865 82.06 58.6814C81.8455 58.7764 81.6602 58.9172 81.5041 59.1012Z" fill="#2E1C17"/>
<path d="M67.7457 58.5971H65.853V58.0591H70.2131V58.5971H68.3211V63.9415H67.7457V58.5971Z" fill="#2E1C17"/>
<path d="M58.5729 63.9415H57.9968V58.0591H61.4512V58.5971H58.5729V60.6473H60.9584V61.186H58.5729V63.9415Z" fill="#2E1C17"/>
<path d="M52.7317 63.9415H52.1562V58.0591H52.7317V63.9415Z" fill="#2E1C17"/>
<path d="M46.5614 61.5127H44.8346V60.9761H47.0965V61.1694C47.0965 61.6509 47.0432 62.0693 46.9359 62.4246C46.8293 62.7813 46.6785 63.0755 46.4841 63.3073C46.289 63.5397 46.0517 63.7131 45.7721 63.828C45.4925 63.9429 45.1798 64 44.8346 64C44.4887 64 44.1733 63.9396 43.8885 63.8154C43.6031 63.6918 43.356 63.5118 43.148 63.2734C42.9393 63.0356 42.778 62.7414 42.6623 62.3921C42.5472 62.0414 42.4894 61.6396 42.4894 61.186V60.7317C42.4894 60.3006 42.5472 59.9148 42.6623 59.576C42.778 59.2367 42.9393 58.9511 43.148 58.7193C43.356 58.4868 43.6038 58.3088 43.8924 58.1853C44.1805 58.0624 44.4939 58 44.8346 58C45.1525 58 45.4386 58.0472 45.6941 58.1388C45.949 58.2311 46.17 58.3567 46.3566 58.5127C46.5432 58.6695 46.6934 58.8548 46.8085 59.0686C46.9242 59.2805 47.0029 59.5043 47.0471 59.7401H46.4386C46.3943 59.5721 46.33 59.4153 46.2454 59.2699C46.1603 59.1238 46.0504 58.9969 45.9165 58.8867C45.7812 58.7777 45.6252 58.6921 45.447 58.631C45.2689 58.5692 45.0647 58.5386 44.8346 58.5386C44.5816 58.5386 44.3495 58.5865 44.135 58.6814C43.921 58.7764 43.7357 58.9172 43.5797 59.1012C43.4237 59.2865 43.3008 59.5163 43.2137 59.7906C43.1259 60.0649 43.0817 60.379 43.0817 60.7317V61.186C43.0817 61.5605 43.1272 61.89 43.2176 62.1729C43.3079 62.4552 43.4315 62.6923 43.5882 62.8829C43.7442 63.0728 43.9295 63.2176 44.1428 63.3159C44.3567 63.4142 44.5875 63.462 44.8346 63.462C45.0972 63.462 45.3326 63.4262 45.542 63.3531C45.7507 63.2807 45.9269 63.1658 46.0725 63.0084C46.2175 62.8523 46.3319 62.6511 46.4138 62.404C46.4958 62.1576 46.5452 61.8608 46.5614 61.5127Z" fill="#2E1C17"/>
<path fill-rule="evenodd" clip-rule="evenodd" d="M32.1658 63.9415L30.8492 61.4211C31.2334 61.3029 31.5215 61.1043 31.7133 60.8247C31.9051 60.5444 32.0013 60.2024 32.0013 59.7985C32.0013 59.2666 31.8355 58.8435 31.5039 58.53C31.171 58.2159 30.6658 58.0591 29.9857 58.0591H28.1347V63.9415H28.7107V61.5386H30.1333C30.1834 61.5386 30.2295 61.536 30.2737 61.5307L31.5078 63.9415H32.1658ZM31.409 59.7985C31.409 60.1857 31.2958 60.482 31.0676 60.6898C30.8394 60.8971 30.4655 61.0007 29.9441 61.0007H28.7107V58.5971H29.9441C30.4597 58.5971 30.8329 58.704 31.0631 58.9172C31.2939 59.1291 31.409 59.4233 31.409 59.7985Z" fill="#2E1C17"/>
<path d="M21.9937 63.0004C22.2759 62.6923 22.417 62.236 22.417 61.631V58.0591H22.993V61.6728C22.993 62.0368 22.941 62.3615 22.837 62.6478C22.7329 62.9334 22.5873 63.1778 22.4007 63.379C22.2141 63.5809 21.9891 63.7343 21.7265 63.8413C21.4631 63.9475 21.1719 64 20.8546 64C20.5308 64 20.2375 63.9489 19.9736 63.8452C19.7103 63.7416 19.4853 63.5902 19.2987 63.391C19.1127 63.1931 18.9697 62.9486 18.8676 62.6604C18.7662 62.3722 18.7155 62.0427 18.7155 61.6728V58.0591H19.2915V61.631C19.2915 62.23 19.4333 62.685 19.7194 62.9971C20.0035 63.3073 20.3825 63.462 20.8546 63.462C21.3312 63.462 21.7109 63.3086 21.9937 63.0004Z" fill="#2E1C17"/>
<path fill-rule="evenodd" clip-rule="evenodd" d="M13.7793 60.7317C13.7793 60.2947 13.7214 59.9068 13.607 59.5681C13.4913 59.2287 13.3281 58.9431 13.1174 58.7106C12.9054 58.4789 12.6538 58.3015 12.3606 58.1806C12.0661 58.0611 11.7442 58 11.3931 58C11.0427 58 10.7202 58.0624 10.427 58.1853C10.1331 58.3088 9.88211 58.4868 9.67405 58.7193C9.46534 58.9511 9.30215 59.2367 9.18511 59.576C9.06613 59.9148 9.00762 60.3006 9.00762 60.7317V61.186C9.00762 61.6396 9.06548 62.0414 9.18056 62.3921C9.2963 62.7414 9.45949 63.0356 9.67015 63.2734C9.88145 63.5118 10.1324 63.6918 10.4231 63.8154C10.713 63.9396 11.0368 64 11.3931 64C11.7442 64 12.0661 63.9396 12.3606 63.8154C12.6538 63.6918 12.9042 63.5118 13.1135 63.2734C13.3216 63.0356 13.4841 62.7414 13.6024 62.3921C13.7201 62.0414 13.7793 61.6396 13.7793 61.186V60.7317ZM13.0511 59.7952C13.1421 60.0662 13.187 60.379 13.187 60.7317V61.186C13.187 61.5665 13.1434 61.8986 13.055 62.1809C12.9672 62.4645 12.8443 62.7016 12.685 62.8915C12.5257 63.0828 12.3365 63.2243 12.1174 63.3206C11.8983 63.4149 11.6565 63.462 11.3931 63.462C11.1357 63.462 10.897 63.4142 10.6779 63.3159C10.4588 63.2176 10.2696 63.0728 10.1103 62.8829C9.95103 62.6923 9.82619 62.4552 9.73582 62.1729C9.64544 61.89 9.59993 61.5605 9.59993 61.186V60.7317C9.59993 60.373 9.64414 60.0576 9.73192 59.7859C9.81904 59.5149 9.94257 59.2865 10.1025 59.1012C10.2612 58.9172 10.4497 58.7764 10.6695 58.6814C10.8892 58.5865 11.1305 58.5386 11.3931 58.5386C11.6512 58.5386 11.8899 58.5865 12.1096 58.6814C12.3287 58.7764 12.5179 58.9179 12.6772 59.1058C12.8359 59.2931 12.9601 59.5229 13.0511 59.7952Z" fill="#2E1C17"/>
<path d="M0.641078 58.0591L2.5175 61.2019L4.22878 58.0591H4.85361L2.79708 61.7983V63.9415H2.22102V61.7983L0 58.0591H0.641078Z" fill="#2E1C17"/>
</svg>
