<svg width="14" height="12" viewBox="0 0 14 12" fill="none" xmlns="http://www.w3.org/2000/svg">
<path fill-rule="evenodd" clip-rule="evenodd" d="M7.97978 0.979821C8.17504 0.784558 8.49162 0.784558 8.68689 0.979821L13.3536 5.64649C13.4473 5.74026 13.5 5.86743 13.5 6.00004C13.5 6.13265 13.4473 6.25983 13.3536 6.35359L8.68689 11.0203C8.49162 11.2155 8.17504 11.2155 7.97978 11.0203C7.78452 10.825 7.78452 10.5084 7.97978 10.3132L11.7929 6.50004L1 6.50004C0.723858 6.50004 0.5 6.27618 0.5 6.00004C0.5 5.7239 0.723858 5.50004 1 5.50004L11.7929 5.50004L7.97978 1.68693C7.78452 1.49167 7.78452 1.17508 7.97978 0.979821Z" fill="#B39166"/>
</svg>
