<svg width="212" height="664" viewBox="0 0 212 664" fill="none" xmlns="http://www.w3.org/2000/svg">
<g clip-path="url(#clip0_1254_54)">
<rect width="212" height="664" fill="#F5F2F0"/>
<path fill-rule="evenodd" clip-rule="evenodd" d="M42.7728 454.427V0H41.7728V452.427L-70.9164 227.049L-71.8108 227.496L41.7728 454.664V800H42.7728V456.664L214.553 800.224L215.447 799.776L42.7728 454.427Z" fill="#D6B384"/>
</g>
<path d="M179.2 646.8L182.416 647.52L182.416 647.136C181.12 646.488 179.92 645.144 179.92 643.272C179.92 641.952 180.856 641.928 181.432 641.928L193.264 641.928C194.128 641.928 195.472 641.976 195.664 643.752L196 643.752L196 638.28L195.664 638.28C195.472 640.056 194.128 640.104 193.264 640.104L181.432 640.104C180.76 640.104 179.92 640.08 179.92 638.76C179.92 636.888 181.168 635.592 182.416 634.896L182.416 634.512L179.2 635.232L179.2 646.8ZM189.904 625.782C186.568 625.974 184.672 627.918 184.672 630.078C184.672 632.478 187.024 634.686 190.384 634.686C193.648 634.686 196.24 632.478 196.24 629.334C196.24 627.702 195.448 626.694 194.104 625.47L193.816 625.806C194.848 626.838 195.16 627.774 195.16 628.662C195.16 631.062 193.288 632.958 190.528 632.958L190.216 632.958C190.12 632.958 190.024 632.958 189.904 632.934L189.904 625.782ZM189.352 632.934C186.736 633.054 185.224 631.59 185.224 630.27C185.224 628.686 187.072 627.414 189.352 627.342L189.352 632.934ZM193.312 616.933L184.912 619.933L184.912 623.509L185.152 623.509L185.152 623.461C185.152 622.189 186.04 622.165 186.424 622.165L194.488 622.165C194.872 622.165 195.76 622.189 195.76 623.461L195.76 623.509L196 623.509L196 620.029L195.76 620.029L195.76 620.077C195.76 621.349 194.872 621.373 194.488 621.373L185.56 621.373L196 617.533L196 617.101L185.56 613.381L194.488 613.381C194.872 613.381 195.76 613.405 195.76 614.677L195.76 614.725L196 614.725L196 610.549L195.76 610.549L195.76 610.597C195.76 611.869 194.872 611.893 194.488 611.893L186.424 611.893C186.04 611.893 185.152 611.869 185.152 610.597L185.152 610.549L184.912 610.549L184.912 613.981L193.312 616.933ZM196 599.025L195.76 599.025L195.76 599.073C195.76 600.345 194.872 600.369 194.488 600.369L187.6 600.369C186.952 600.369 186.208 600.393 185.536 601.089C184.792 601.833 184.672 602.913 184.672 603.681C184.672 604.329 184.696 605.289 185.344 606.417C185.992 607.545 186.712 607.881 187.36 607.881C187.912 607.881 188.296 607.569 188.296 606.993C188.296 606.393 187.744 605.985 187.216 605.985C186.808 605.985 186.28 605.985 185.824 605.481C185.44 605.073 185.224 604.329 185.224 603.657C185.224 602.889 185.656 602.409 186.04 602.145C186.52 601.857 187.096 601.857 187.696 601.857L188.824 601.857L189.352 603.249C190.312 605.769 190.768 606.561 191.32 607.305C191.8 607.977 192.64 608.625 193.744 608.625C194.632 608.625 196.24 608.073 196.24 605.841C196.24 604.569 195.76 603.393 194.728 601.857L196 601.857L196 599.025ZM194.176 601.857C194.728 602.673 195.424 604.161 195.424 605.193C195.424 606.129 194.824 606.897 193.768 606.897C193.072 606.897 192.064 606.537 191.2 605.409C190.552 604.545 189.688 602.817 189.376 601.857L194.176 601.857ZM196 591.111L195.76 591.111L195.76 591.159C195.76 592.431 194.872 592.455 194.488 592.455L186.976 592.455C186.52 592.455 185.632 592.455 185.632 591.495C185.632 590.463 186.448 589.263 187.888 588.759L187.888 588.375L184.912 589.071L184.912 597.327L187.888 598.023L187.888 597.639C186.448 597.135 185.632 595.935 185.632 594.903C185.632 593.943 186.52 593.943 186.976 593.943L194.488 593.943C194.872 593.943 195.76 593.967 195.76 595.239L195.76 595.287L196 595.287L196 591.111ZM184.912 587.087L185.152 587.087L185.152 587.039C185.152 585.767 186.04 585.743 186.424 585.743L194.488 585.743C194.872 585.743 195.76 585.767 195.76 587.039L195.76 587.087L196 587.087L196 582.911L195.76 582.911L195.76 582.959C195.76 584.231 194.872 584.255 194.488 584.255L193.456 584.255L188.44 579.359L194.488 579.359C194.872 579.359 195.76 579.383 195.76 580.655L195.76 580.703L196 580.703L196 576.527L195.76 576.527L195.76 576.575C195.76 577.847 194.872 577.871 194.488 577.871L186.424 577.871C186.04 577.871 185.152 577.847 185.152 576.575L185.152 576.527L184.912 576.527L184.912 580.703L185.152 580.703L185.152 580.655C185.152 579.383 186.04 579.359 186.424 579.359L187.552 579.359L192.592 584.255L186.424 584.255C186.04 584.255 185.152 584.231 185.152 582.959L185.152 582.911L184.912 582.911L184.912 587.087ZM184.912 565.354L184.912 569.53L185.152 569.53L185.152 569.482C185.152 568.21 186.04 568.186 186.424 568.186L190.48 568.186C190.792 569.314 190.888 570.082 190.888 571.018C190.888 572.65 190.024 572.65 189.52 572.65L186.424 572.65C186.04 572.65 185.152 572.626 185.152 571.354L185.152 571.306L184.912 571.306L184.912 575.482L185.152 575.482L185.152 575.434C185.152 574.162 186.04 574.138 186.424 574.138L189.616 574.138C190.6 574.138 191.56 573.874 191.56 571.546C191.56 570.418 191.392 569.242 191.032 568.186L194.488 568.186C194.872 568.186 195.76 568.21 195.76 569.482L195.76 569.53L196 569.53L196 565.354L195.76 565.354L195.76 565.402C195.76 566.674 194.872 566.698 194.488 566.698L186.424 566.698C186.04 566.698 185.152 566.674 185.152 565.402L185.152 565.354L184.912 565.354ZM189.904 554.438C186.568 554.63 184.672 556.574 184.672 558.734C184.672 561.134 187.024 563.342 190.384 563.342C193.648 563.342 196.24 561.134 196.24 557.99C196.24 556.358 195.448 555.35 194.104 554.126L193.816 554.462C194.848 555.494 195.16 556.43 195.16 557.318C195.16 559.718 193.288 561.614 190.528 561.614L190.216 561.614C190.12 561.614 190.024 561.614 189.904 561.59L189.904 554.438ZM189.352 561.59C186.736 561.71 185.224 560.246 185.224 558.926C185.224 557.342 187.072 556.07 189.352 555.998L189.352 561.59ZM193.792 543.849C194.728 544.617 195.136 545.673 195.136 546.705C195.136 548.673 193.552 550.905 189.496 550.905C185.944 550.905 185.224 549.057 185.224 547.713C185.224 546.945 185.512 546.441 185.872 546.225C186.376 545.961 187.192 546.057 187.648 545.937C188.2 545.769 188.464 545.313 188.464 544.905C188.464 544.521 188.2 543.945 187.36 543.945C186.76 543.945 186.112 544.281 185.56 544.929C185.008 545.601 184.672 546.465 184.672 547.497C184.672 549.873 186.616 552.537 190.48 552.537C193.984 552.537 196.24 549.993 196.24 547.185C196.24 546.345 196.024 544.881 194.176 543.417L193.792 543.849ZM184.912 541.83L185.152 541.83L185.152 541.782C185.152 540.51 186.04 540.486 186.424 540.486L194.488 540.486C194.872 540.486 195.76 540.51 195.76 541.782L195.76 541.83L196 541.83L196 537.654L195.76 537.654L195.76 537.702C195.76 538.974 194.872 538.998 194.488 538.998L192.088 538.998L190.096 537.078L194.44 534.366C194.608 534.27 194.824 534.126 195.064 534.126C195.544 534.126 195.76 534.654 195.76 534.966L195.76 535.11L196 535.11L196 530.958L195.76 530.958C195.592 531.702 195.136 532.134 194.464 532.59L189.04 535.974L186.64 533.67C185.68 532.734 185.344 532.11 185.152 531.558L184.912 531.558L184.912 535.11L185.152 535.11C185.224 534.51 185.56 534.174 185.872 534.174C186.04 534.174 186.232 534.318 186.448 534.51L191.176 538.998L186.424 538.998C186.04 538.998 185.152 538.974 185.152 537.702L185.152 537.654L184.912 537.654L184.912 541.83ZM184.912 530.064L185.152 530.064L185.152 530.016C185.152 528.744 186.04 528.72 186.424 528.72L194.488 528.72C194.872 528.72 195.76 528.744 195.76 530.016L195.76 530.064L196 530.064L196 525.888L195.76 525.888L195.76 525.936C195.76 527.208 194.872 527.232 194.488 527.232L193.456 527.232L188.44 522.336L194.488 522.336C194.872 522.336 195.76 522.36 195.76 523.632L195.76 523.68L196 523.68L196 519.504L195.76 519.504L195.76 519.552C195.76 520.824 194.872 520.848 194.488 520.848L186.424 520.848C186.04 520.848 185.152 520.824 185.152 519.552L185.152 519.504L184.912 519.504L184.912 523.68L185.152 523.68L185.152 523.632C185.152 522.36 186.04 522.336 186.424 522.336L187.552 522.336L192.592 527.232L186.424 527.232C186.04 527.232 185.152 527.208 185.152 525.936L185.152 525.888L184.912 525.888L184.912 530.064ZM189.904 508.594C186.568 508.786 184.672 510.73 184.672 512.89C184.672 515.29 187.024 517.498 190.384 517.498C193.648 517.498 196.24 515.29 196.24 512.146C196.24 510.514 195.448 509.506 194.104 508.282L193.816 508.618C194.848 509.65 195.16 510.586 195.16 511.474C195.16 513.874 193.288 515.77 190.528 515.77L190.216 515.77C190.12 515.77 190.024 515.77 189.904 515.746L189.904 508.594ZM189.352 515.746C186.736 515.866 185.224 514.402 185.224 513.082C185.224 511.498 187.072 510.226 189.352 510.154L189.352 515.746Z" fill="#B39166"/>
<defs>
<clipPath id="clip0_1254_54">
<rect width="212" height="664" fill="white"/>
</clipPath>
</defs>
</svg>
